HIERARCHY
ROOT CG
{
	OFFSET 0.000000 0.000000 27.772259
	CHANNELS 6 Xposition Yposition Zposition Xrotation Yrotation Zrotation
	JOINT Pelvis
	{
		OFFSET 0.000000 0.000000 0.000000
		CHANNELS 3 Xrotation Yrotation Zrotation
		JOINT Spine
		{
			OFFSET -0.000017 -10.490843 -0.495483
			CHANNELS 3 Xrotation Yrotation Zrotation
			JOINT Spine1
			{
				OFFSET -0.000010 -22.678980 0.018061
				CHANNELS 3 Xrotation Yrotation Zrotation
				JOINT Spine2
				{
					OFFSET -0.000010 -22.678967 0.018061
					CHANNELS 3 Xrotation Yrotation Zrotation
					JOINT Spine3
					{
						OFFSET -0.000010 -22.678982 0.018059
						CHANNELS 3 Xrotation Yrotation Zrotation
						JOINT Neck
						{
							OFFSET -0.000012 -22.678986 -1.289251
							CHANNELS 3 Xrotation Yrotation Zrotation
							JOINT Neck1
							{
								OFFSET -0.000007 -16.255905 0.012947
								CHANNELS 3 Xrotation Yrotation Zrotation
								JOINT Head
								{
									OFFSET -0.000005 -10.784607 -0.287502
									CHANNELS 3 Xrotation Yrotation Zrotation
									JOINT Jaw01
									{
										OFFSET 0.000031 7.782959 5.073944
										CHANNELS 3 Xrotation Yrotation Zrotation
										JOINT Jaw02
										{
											OFFSET 0.000004 -34.927139 -18.883980
											CHANNELS 3 Xrotation Yrotation Zrotation
											End Site
											{
												OFFSET -0.000170 8.372803 -38.812450
											}
										}
									}
									JOINT Nose
									{
										OFFSET -0.000002 -25.700912 7.222265
										CHANNELS 3 Xrotation Yrotation Zrotation
										End Site
										{
											OFFSET -0.000090 0.641281 -21.715439
										}
									}
									JOINT L_EyeSocket
									{
										OFFSET 7.352326 -19.832718 14.164183
										CHANNELS 3 Xrotation Yrotation Zrotation
										JOINT L_Eye
										{
											OFFSET -0.000868 -0.001053 0.016003
											CHANNELS 3 Xrotation Yrotation Zrotation
											End Site
											{
												OFFSET -0.001505 -0.001846 0.027969
											}
										}
										JOINT L_Eyelid_Top
										{
											OFFSET -0.001004 -0.002625 0.032516
											CHANNELS 3 Xrotation Yrotation Zrotation
											End Site
											{
												OFFSET -0.013218 0.005753 0.024086
											}
										}
										JOINT L_Eyelid_Bottom
										{
											OFFSET -0.001194 -0.002777 0.035381
											CHANNELS 3 Xrotation Yrotation Zrotation
											End Site
											{
												OFFSET -0.010032 0.008636 -0.024754
											}
										}
									}
									JOINT R_EyeSocket
									{
										OFFSET -7.352252 -19.832748 14.164206
										CHANNELS 3 Xrotation Yrotation Zrotation
										JOINT R_Eye
										{
											OFFSET 0.000875 -0.001068 0.015991
											CHANNELS 3 Xrotation Yrotation Zrotation
											End Site
											{
												OFFSET 0.001505 -0.001846 0.027962
											}
										}
										JOINT R_Eyelid_Top
										{
											OFFSET 0.001021 -0.002625 0.032516
											CHANNELS 3 Xrotation Yrotation Zrotation
											End Site
											{
												OFFSET 0.013214 0.005753 0.024078
											}
										}
										JOINT R_Eyelid_Bottom
										{
											OFFSET 0.001170 -0.002762 0.035366
											CHANNELS 3 Xrotation Yrotation Zrotation
											End Site
											{
												OFFSET 0.010029 0.008636 -0.024746
											}
										}
									}
								}
								JOINT Neck_Fat
								{
									OFFSET 0.000044 -9.595100 -17.491512
									CHANNELS 3 Xrotation Yrotation Zrotation
									End Site
									{
										OFFSET -0.000036 15.369423 -0.000007
									}
								}
							}
						}
						JOINT L_Clavicle
						{
							OFFSET 4.567107 -11.666092 -3.750029
							CHANNELS 3 Xrotation Yrotation Zrotation
							JOINT L_UpperArm
							{
								OFFSET 20.725666 -0.000053 -0.000032
								CHANNELS 3 Xrotation Yrotation Zrotation
								JOINT L_Forearm
								{
									OFFSET 5.265112 -0.585754 -20.155697
									CHANNELS 3 Xrotation Yrotation Zrotation
									JOINT L_Hand
									{
										OFFSET 2.653017 -10.877708 -16.383667
										CHANNELS 3 Xrotation Yrotation Zrotation
										JOINT L_Finger0
										{
											OFFSET -4.206146 -4.328911 -5.034346
											CHANNELS 3 Xrotation Yrotation Zrotation
											JOINT L_Finger01
											{
												OFFSET 0.084272 -1.788536 -4.181065
												CHANNELS 3 Xrotation Yrotation Zrotation
												End Site
												{
													OFFSET 3.261885 3.094673 -0.685818
												}
											}
										}
										JOINT L_Finger1
										{
											OFFSET -1.039112 -6.775742 -3.499998
											CHANNELS 3 Xrotation Yrotation Zrotation
											JOINT L_Finger11
											{
												OFFSET 1.320335 -3.040672 -6.425793
												CHANNELS 3 Xrotation Yrotation Zrotation
												End Site
												{
													OFFSET -1.244579 6.832077 -2.013330
												}
											}
										}
										JOINT L_Finger2
										{
											OFFSET 2.531296 -5.656487 -3.286415
											CHANNELS 3 Xrotation Yrotation Zrotation
											JOINT L_Finger21
											{
												OFFSET 1.991665 -2.402016 -5.957748
												CHANNELS 3 Xrotation Yrotation Zrotation
												End Site
												{
													OFFSET -2.793068 5.800873 -1.944178
												}
											}
										}
										JOINT L_Finger3
										{
											OFFSET 5.474075 -3.302338 -2.655975
											CHANNELS 3 Xrotation Yrotation Zrotation
											JOINT L_Finger31
											{
												OFFSET 2.026943 -1.267532 -5.961166
												CHANNELS 3 Xrotation Yrotation Zrotation
												End Site
												{
													OFFSET -4.375172 4.343658 -1.800320
												}
											}
										}
										JOINT L_Finger4
										{
											OFFSET 4.825745 1.085899 -2.321970
											CHANNELS 3 Xrotation Yrotation Zrotation
											JOINT L_Finger41
											{
												OFFSET 3.358261 -1.829651 -3.744434
												CHANNELS 3 Xrotation Yrotation Zrotation
												End Site
												{
													OFFSET -3.843296 2.955200 -2.267633
												}
											}
										}
									}
								}
							}
						}
						JOINT R_Clavicle
						{
							OFFSET -4.567111 -11.666092 -3.750036
							CHANNELS 3 Xrotation Yrotation Zrotation
							JOINT R_UpperArm
							{
								OFFSET -20.725670 -0.000031 0.000038
								CHANNELS 3 Xrotation Yrotation Zrotation
								JOINT R_Forearm
								{
									OFFSET -5.265285 -0.585762 -20.155655
									CHANNELS 3 Xrotation Yrotation Zrotation
									JOINT R_Hand
									{
										OFFSET -2.653147 -10.877739 -16.383663
										CHANNELS 3 Xrotation Yrotation Zrotation
										JOINT R_Finger0
										{
											OFFSET 4.206116 -4.328888 -5.034388
											CHANNELS 3 Xrotation Yrotation Zrotation
											JOINT R_Finger01
											{
												OFFSET -0.084324 -1.788544 -4.181051
												CHANNELS 3 Xrotation Yrotation Zrotation
												End Site
												{
													OFFSET -3.261890 3.094666 -0.685791
												}
											}
										}
										JOINT R_Finger1
										{
											OFFSET 1.039101 -6.775711 -3.499994
											CHANNELS 3 Xrotation Yrotation Zrotation
											JOINT R_Finger11
											{
												OFFSET -1.320374 -3.040672 -6.425779
												CHANNELS 3 Xrotation Yrotation Zrotation
												End Site
												{
													OFFSET 1.244556 6.832077 -2.013342
												}
											}
										}
										JOINT R_Finger2
										{
											OFFSET -2.531307 -5.656464 -3.286409
											CHANNELS 3 Xrotation Yrotation Zrotation
											JOINT R_Finger21
											{
												OFFSET -1.991707 -2.402016 -5.957708
												CHANNELS 3 Xrotation Yrotation Zrotation
												End Site
												{
													OFFSET 2.793037 5.800858 -1.944197
												}
											}
										}
										JOINT R_Finger3
										{
											OFFSET -5.474091 -3.302330 -2.655947
											CHANNELS 3 Xrotation Yrotation Zrotation
											JOINT R_Finger31
											{
												OFFSET -2.026993 -1.267532 -5.961157
												CHANNELS 3 Xrotation Yrotation Zrotation
												End Site
												{
													OFFSET 4.375156 4.343674 -1.800358
												}
											}
										}
										JOINT R_Finger4
										{
											OFFSET -4.825756 1.085922 -2.321926
											CHANNELS 3 Xrotation Yrotation Zrotation
											JOINT R_Finger41
											{
												OFFSET -3.358307 -1.829651 -3.744390
												CHANNELS 3 Xrotation Yrotation Zrotation
												End Site
												{
													OFFSET 3.843273 2.955208 -2.267666
												}
											}
										}
									}
								}
							}
						}
					}
				}
			}
		}
		JOINT Tail01
		{
			OFFSET -0.000010 10.922326 -0.017508
			CHANNELS 3 Xrotation Yrotation Zrotation
			JOINT Tail02
			{
				OFFSET -0.000022 21.986111 0.000013
				CHANNELS 3 Xrotation Yrotation Zrotation
				JOINT Tail03
				{
					OFFSET -0.000022 21.986118 0.000002
					CHANNELS 3 Xrotation Yrotation Zrotation
					JOINT Tail04
					{
						OFFSET -0.000022 21.986122 0.000004
						CHANNELS 3 Xrotation Yrotation Zrotation
						JOINT Tail05
						{
							OFFSET -0.000022 21.986099 0.000010
							CHANNELS 3 Xrotation Yrotation Zrotation
							JOINT Tail06
							{
								OFFSET -0.000022 21.986099 0.000006
								CHANNELS 3 Xrotation Yrotation Zrotation
								JOINT Tail07
								{
									OFFSET -0.000022 21.986099 0.000000
									CHANNELS 3 Xrotation Yrotation Zrotation
									JOINT Tail08
									{
										OFFSET -0.000022 21.984848 0.000050
										CHANNELS 3 Xrotation Yrotation Zrotation
										JOINT Tail09
										{
											OFFSET -0.000025 21.926025 -1.606211
											CHANNELS 3 Xrotation Yrotation Zrotation
											JOINT Tail10
											{
												OFFSET -0.000027 21.750092 -3.203882
												CHANNELS 3 Xrotation Yrotation Zrotation
												End Site
												{
													OFFSET -0.000036 4.767395 21.461668
												}
											}
										}
									}
								}
							}
						}
					}
				}
			}
		}
		JOINT L_Thigh
		{
			OFFSET 24.788780 0.000021 -0.000034
			CHANNELS 3 Xrotation Yrotation Zrotation
			JOINT L_Calf
			{
				OFFSET 4.720837 4.161326 -21.049969
				CHANNELS 3 Xrotation Yrotation Zrotation
				JOINT L_Foot
				{
					OFFSET 2.154160 21.114433 -11.949743
					CHANNELS 3 Xrotation Yrotation Zrotation
					JOINT L_Toe0
					{
						OFFSET 4.557564 9.251841 -8.735286
						CHANNELS 3 Xrotation Yrotation Zrotation
						End Site
						{
							OFFSET 4.555542 -12.646044 1.018752
						}
					}
					JOINT L_Toe1
					{
						OFFSET 2.346291 5.845602 -11.687160
						CHANNELS 3 Xrotation Yrotation Zrotation
						End Site
						{
							OFFSET 5.347954 -12.298279 1.365644
						}
					}
					JOINT L_Toe2
					{
						OFFSET -0.356020 3.902458 -12.541145
						CHANNELS 3 Xrotation Yrotation Zrotation
						End Site
						{
							OFFSET 3.916235 -12.806129 1.542549
						}
					}
					JOINT L_Toe3
					{
						OFFSET -4.603447 3.183935 -12.435249
						CHANNELS 3 Xrotation Yrotation Zrotation
						End Site
						{
							OFFSET 3.810858 -12.587427 2.957583
						}
					}
					JOINT L_Toe4
					{
						OFFSET -7.144358 6.231495 -10.072764
						CHANNELS 3 Xrotation Yrotation Zrotation
						End Site
						{
							OFFSET 3.810858 -12.587425 2.957585
						}
					}
				}
			}
		}
		JOINT R_Thigh
		{
			OFFSET -24.788780 -0.000024 0.000034
			CHANNELS 3 Xrotation Yrotation Zrotation
			JOINT R_Calf
			{
				OFFSET -4.720922 4.161324 -21.049952
				CHANNELS 3 Xrotation Yrotation Zrotation
				JOINT R_Foot
				{
					OFFSET -2.154238 21.114414 -11.949730
					CHANNELS 3 Xrotation Yrotation Zrotation
					JOINT R_Toe0
					{
						OFFSET -4.557598 9.251823 -8.735270
						CHANNELS 3 Xrotation Yrotation Zrotation
						End Site
						{
							OFFSET -4.555508 -12.646051 1.018756
						}
					}
					JOINT R_Toe1
					{
						OFFSET -2.346325 5.845589 -11.687157
						CHANNELS 3 Xrotation Yrotation Zrotation
						End Site
						{
							OFFSET -5.347919 -12.298286 1.365654
						}
					}
					JOINT R_Toe2
					{
						OFFSET 0.355980 3.902462 -12.541145
						CHANNELS 3 Xrotation Yrotation Zrotation
						End Site
						{
							OFFSET -3.916199 -12.806131 1.542559
						}
					}
					JOINT R_Toe3
					{
						OFFSET 4.603411 3.183941 -12.435266
						CHANNELS 3 Xrotation Yrotation Zrotation
						End Site
						{
							OFFSET -3.810825 -12.587429 2.957591
						}
					}
					JOINT R_Toe4
					{
						OFFSET 7.144323 6.231503 -10.072779
						CHANNELS 3 Xrotation Yrotation Zrotation
						End Site
						{
							OFFSET -3.810825 -12.587433 2.957584
						}
					}
				}
			}
		}
	}
}
MOTION
Frames: 4
Frame Time: 0.033333
0.000000 0.000000 27.772259 0.000000 -0.000000 0.000027 0.000000 -0.000000 -0.000000 -0.000000 0.000000 -0.000000 0.000000 -0.000000 0.000000 -0.000000 -0.000000 0.000000 -0.000000 -0.000000 0.000000 0.000000 0.000000 0.000000 0.000000 0.000000 0.000000 0.000000 0.000000 0.000000 -11.890301 0.000021 0.000003 -11.890279 -0.000011 -0.000037 0.000021 0.000000 -0.000000 0.000001 0.000000 -0.000000 0.000139 -0.000087 0.000004 0.000004 0.000000 -0.000001 0.000003 -0.000005 0.000012 -0.000000 0.000000 -0.000003 0.000139 0.000088 -0.000021 0.000001 0.000001 0.000002 -0.000001 0.000004 -0.000002 0.000000 0.000000 0.000000 0.000237 12.602235 11.307994 83.449851 -15.676973 27.388828 -24.879936 5.232283 -5.626993 -0.000001 0.000005 -0.000004 0.000003 0.000002 -0.000005 0.000000 0.000004 -0.000000 0.000006 -0.000008 0.000004 -0.000003 -0.000002 -0.000003 0.000006 0.000001 -0.000004 0.000001 -0.000006 0.000004 0.000006 0.000010 -0.000003 0.000002 -0.000004 -0.000001 0.000004 0.000004 -0.000004 -0.000003 -0.000005 0.000011 0.000195 -12.602564 -11.308022 83.449755 15.676686 -27.389344 -24.879847 -5.232367 5.627188 -0.000005 0.000001 -0.000008 -0.000004 -0.000002 -0.000009 0.000003 0.000000 0.000002 0.000003 -0.000006 0.000002 0.000003 -0.000001 0.000002 0.000003 -0.000006 -0.000007 -0.000001 0.000000 0.000000 0.000002 0.000006 0.000001 0.000007 -0.000004 -0.000009 -0.000000 0.000004 -0.000004 -0.000008 -0.000002 0.000003 -0.000000 0.000000 0.000000 -0.000000 -0.000000 -0.000000 -0.000000 -0.000000 0.000000 -0.000000 -0.000000 0.000000 -0.000000 -0.000000 0.000000 -0.000000 0.000000 -0.000000 -0.000000 0.000000 -0.000000 0.000010 0.000000 0.000000 0.000010 0.000000 0.000000 0.000010 0.000000 0.000000 21.412592 -3.134859 2.364607 6.170467 0.249083 1.406622 59.246318 -2.182366 -4.339106 0.000002 -0.000011 0.000000 -0.000001 -0.000000 -0.000002 -0.000014 -0.000004 0.000004 0.000000 -0.000001 0.000002 0.000001 -0.000002 0.000001 21.412553 3.134848 -2.364723 6.170521 -0.249072 -1.406652 59.246270 2.182254 4.339081 -0.000013 -0.000009 -0.000005 -0.000000 0.000001 -0.000002 -0.000001 -0.000000 -0.000001 0.000000 -0.000001 -0.000002 -0.000011 0.000000 -0.000001 
0.000000 0.000000 27.013205 0.000001 -0.634921 0.000034 -0.000000 0.000000 -0.000000 0.000007 1.165981 -0.000000 0.000052 1.943302 -0.001511 0.000055 1.943302 -0.001593 0.005420 1.943302 -0.001996 0.000000 -0.000000 0.000007 -0.000007 2.351112 -0.001887 -1.111452 -5.382960 -0.327616 -10.008898 0.000018 -0.000000 -11.758005 -0.000010 -0.000038 0.000021 0.000000 -0.000000 0.000000 0.000000 -0.000003 0.000140 -0.000086 0.000004 0.000006 0.000003 0.000002 0.000002 -0.000001 0.000012 -0.000000 0.000001 -0.000007 0.000140 0.000087 -0.000018 0.000003 -0.000006 0.000001 0.000002 0.000001 0.000002 0.000000 0.000001 0.000000 0.006465 11.120777 9.978685 80.767923 -24.155756 28.610954 -25.585002 5.414866 -5.752043 -0.000007 0.000005 -0.000005 -0.000001 0.000001 -0.000001 0.000001 0.000001 0.000003 0.000004 -0.000008 0.000004 -0.000001 0.000001 -0.000003 -0.000002 0.000001 -0.000005 0.000001 -0.000003 0.000002 0.000007 0.000004 0.000000 0.000005 -0.000007 -0.000001 -0.000001 0.000006 -0.000001 -0.000005 -0.000001 0.000003 0.000586 -12.245011 -7.849029 70.138946 19.176820 -18.000296 -22.728563 -4.685255 5.232272 -4.834707 1.323287 -1.553273 -2.367582 -2.308947 0.979569 -2.367580 -2.308958 0.979566 -3.372013 0.706438 0.367006 -3.371237 0.706832 0.373579 -3.056128 1.584043 0.419059 -3.056138 1.584055 0.419056 -2.381708 2.498833 0.326649 -2.381731 2.498836 0.326652 -1.968445 2.824612 0.420845 -1.968436 2.824610 0.420840 -0.000000 -0.000000 0.000130 -0.000000 0.328211 0.000104 -0.000000 0.328211 0.000104 -0.000107 0.328211 0.000111 0.000115 0.328211 0.000111 0.000217 0.328212 -0.000148 0.000257 0.328211 -0.000244 0.007833 0.321824 -0.171028 0.010388 0.305476 -0.220375 0.013471 0.276406 -0.264698 12.270277 -1.123646 2.014958 4.893741 0.185112 1.117793 59.977899 -5.636935 -3.875940 0.000003 -0.000010 -0.000003 0.000001 0.000000 -0.000005 -0.000009 -0.000002 0.000007 0.000002 0.000000 -0.000000 0.000003 -0.000001 -0.000001 21.138189 3.136803 -2.408841 7.228819 -0.306980 -1.645000 61.491503 -0.963831 7.368276 -0.000010 -0.000008 -0.000006 0.000001 0.000003 -0.000000 0.000001 0.000000 0.000000 -0.000000 0.000000 -0.000002 -0.000012 0.000002 0.000000 
0.000000 0.000000 26.149462 0.000004 -2.222222 0.000027 -0.000000 0.000000 -0.000000 0.000008 2.411701 -0.000000 0.000210 4.021253 -0.002959 0.000225 4.021253 -0.003178 0.011182 4.021254 -0.004294 -0.000000 0.000000 0.000020 0.000059 4.719011 -0.003797 -2.400051 -11.866082 -1.036305 -7.885366 0.000014 -0.000004 -11.626625 -0.000010 -0.000038 0.000021 -0.000000 -0.000000 0.000000 -0.000000 -0.000000 0.000140 -0.000087 0.000006 0.000005 0.000003 0.000001 0.000003 -0.000002 0.000008 0.000001 -0.000001 -0.000004 0.000139 0.000088 -0.000028 0.000003 -0.000001 0.000001 -0.000003 0.000004 -0.000002 0.000000 0.000001 -0.000000 0.010324 9.628828 8.639731 79.075033 -33.981530 30.618553 -26.883029 5.755070 -5.976508 -0.000007 0.000004 -0.000005 0.000008 0.000001 0.000002 -0.000000 0.000000 0.000001 0.000006 -0.000008 0.000004 -0.000003 0.000000 -0.000001 0.000002 -0.000002 -0.000004 0.000002 -0.000002 0.000005 0.000005 0.000004 -0.000005 0.000000 -0.000005 -0.000001 0.000003 0.000001 0.000003 -0.000009 -0.000002 0.000006 0.000942 -11.973725 -3.672792 53.153563 18.516359 -8.347044 -20.388495 -4.107979 4.780465 -10.370584 3.739658 -2.679160 -5.020692 -4.982607 1.979871 -5.020687 -4.982622 1.979871 -7.215110 1.482051 0.838937 -7.213954 1.482792 0.848494 -6.552256 3.356339 0.998601 -6.552262 3.356343 0.998602 -5.118036 5.322856 0.825996 -5.118061 5.322867 0.825989 -4.242934 6.018892 1.019992 -4.242922 6.018865 1.019987 0.000000 -0.005811 0.000508 -0.000002 0.656425 0.000407 -0.000002 0.656425 0.000407 -0.000412 0.656426 0.000427 0.000403 0.656425 0.000448 0.000765 0.656426 -0.000502 0.000909 0.656425 -0.000850 0.019866 0.644285 -0.333057 0.025149 0.612639 -0.429039 0.031686 0.555707 -0.516171 3.140973 0.917481 1.989181 3.616684 0.127595 0.827602 60.813839 -9.115983 -4.047152 0.000002 -0.000010 0.000002 0.000001 0.000001 -0.000007 -0.000014 -0.000003 0.000004 -0.000004 0.000000 0.000001 0.000001 -0.000001 0.000000 20.856008 3.138906 -2.453957 8.339646 -0.372496 -1.894046 64.061779 -4.083112 10.730894 -0.000011 -0.000006 -0.000008 0.000001 0.000002 -0.000005 0.000001 0.000000 -0.000005 -0.000001 0.000000 -0.000002 -0.000011 0.000001 -0.000002 
0.000000 0.000000 25.338051 0.000007 -4.285717 0.000028 0.000000 0.000000 -0.000000 0.000002 3.703703 -0.000000 0.000472 6.175390 -0.004357 0.000514 6.175388 -0.004749 0.016866 6.175385 -0.006830 0.000000 -0.000001 0.000034 0.000209 7.080986 -0.005713 -3.663316 -18.256138 -2.075929 -5.882972 0.000011 -0.000007 -11.495405 -0.000009 -0.000039 0.000021 -0.000000 0.000000 0.000000 0.000001 0.000000 0.000140 -0.000086 0.000009 0.000003 0.000007 0.000004 0.000006 0.000000 0.000009 0.000001 0.000000 -0.000005 0.000140 0.000086 -0.000023 0.000002 -0.000007 0.000001 -0.000001 0.000003 -0.000000 0.000000 0.000001 -0.000000 0.010983 8.140563 7.304157 79.390164 -43.575818 33.110124 -27.883913 6.020904 -6.144422 -0.000005 0.000005 -0.000006 0.000001 0.000001 -0.000004 0.000001 0.000000 0.000001 0.000004 -0.000009 0.000001 0.000001 -0.000000 -0.000003 -0.000005 -0.000002 -0.000003 -0.000000 -0.000004 0.000002 0.000001 0.000008 -0.000002 0.000008 -0.000010 -0.000002 -0.000001 0.000001 0.000002 -0.000009 -0.000003 0.000009 0.000900 -11.659312 0.144741 36.824688 14.577082 -1.550216 -18.138985 -3.571477 4.325079 -15.511658 5.775466 -3.763224 -7.487941 -7.533671 2.801622 -7.482145 -7.533503 2.809594 -10.832194 2.179014 1.332286 -10.830850 2.181144 1.341268 -9.860183 4.985086 1.645496 -9.859675 4.985986 1.642041 -7.727615 7.950023 1.428687 -7.725203 7.950973 1.421086 -6.435946 8.990966 1.709280 -6.425309 8.995372 1.703223 -0.000000 0.001799 0.001108 -0.000008 0.895839 0.000830 -0.000008 0.895839 0.000823 -0.000890 0.895840 0.000864 0.000773 0.895839 0.000912 0.001484 0.895841 -0.001015 0.001766 0.895840 -0.001684 0.023763 0.878976 -0.455925 0.031518 0.836791 -0.579038 0.040547 0.759964 -0.697207 -3.276705 2.258117 2.000279 4.633361 0.172860 1.058726 57.926916 -12.192271 -5.340975 0.000007 -0.000010 -0.000001 0.000003 -0.000003 -0.000005 -0.000011 -0.000005 0.000003 0.000001 -0.000001 -0.000000 0.000019 -0.000000 0.000001 20.577666 3.141248 -2.498809 9.458021 -0.443342 -2.143516 66.836871 -6.995607 14.270355 -0.000012 -0.000008 -0.000010 0.000000 0.000002 -0.000002 -0.000001 -0.000000 -0.000002 -0.000001 -0.000001 -0.000002 -0.000014 0.000002 -0.000001 
